<?xml version="1.0" encoding="UTF-8" standalone="no"?>
<svg
   width="400"
   height="128"
   viewBox="0 0 105.83333 33.866668"
   version="1.1"
   id="svg957"
   inkscape:version="1.2.1 (9c6d41e410, 2022-07-14, custom)"
   sodipodi:docname="logo-dark.svg"
   xmlns:inkscape="http://www.inkscape.org/namespaces/inkscape"
   xmlns:sodipodi="http://sodipodi.sourceforge.net/DTD/sodipodi-0.dtd"
   xmlns="http://www.w3.org/2000/svg"
   xmlns:svg="http://www.w3.org/2000/svg"
   xmlns:rdf="http://www.w3.org/1999/02/22-rdf-syntax-ns#"
   xmlns:cc="http://creativecommons.org/ns#"
   xmlns:dc="http://purl.org/dc/elements/1.1/">
  <defs
     id="defs951" />
  <sodipodi:namedview
     id="base"
     pagecolor="#ffffff"
     bordercolor="#666666"
     borderopacity="1.0"
     inkscape:pageopacity="0.0"
     inkscape:pageshadow="2"
     inkscape:zoom="1.9931673"
     inkscape:cx="175.0982"
     inkscape:cy="36.875982"
     inkscape:document-units="px"
     inkscape:current-layer="layer1"
     inkscape:document-rotation="0"
     showgrid="false"
     units="px"
     inkscape:window-width="1535"
     inkscape:window-height="776"
     inkscape:window-x="23"
     inkscape:window-y="15"
     inkscape:window-maximized="0"
     inkscape:showpageshadow="2"
     inkscape:pagecheckerboard="0"
     inkscape:deskcolor="#d1d1d1">
    <inkscape:grid
       id="grid1267"
       type="xygrid" />
  </sodipodi:namedview>
  <metadata
     id="metadata954">
    <rdf:RDF>
      <cc:Work
         rdf:about="">
        <dc:format>image/svg+xml</dc:format>
        <dc:type
           rdf:resource="http://purl.org/dc/dcmitype/StillImage" />
        <dc:title />
      </cc:Work>
    </rdf:RDF>
  </metadata>
  <g
     inkscape:label="Layer 1"
     inkscape:groupmode="layer"
     id="layer1">
    <g
       style="font-style:normal;font-variant:normal;font-weight:600;font-stretch:normal;font-size:16.3612px;line-height:125%;font-family:'Source Sans Pro';-inkscape-font-specification:'Source Sans Pro Semi-Bold';text-align:center;letter-spacing:0px;word-spacing:0px;text-anchor:middle;fill:#ffffff;fill-opacity:1;stroke:#000000;stroke-width:0.68791667;stroke-linecap:butt;stroke-linejoin:miter;stroke-opacity:1;stroke-miterlimit:4;stroke-dasharray:none;paint-order:markers stroke fill"
       id="text1522"
       aria-label="musium">
      <path
         id="path1286"
         style="font-style:normal;font-variant:normal;font-weight:600;font-stretch:normal;font-family:'Work Sans';-inkscape-font-specification:'Work Sans Semi-Bold';stroke-width:0.68791667;stroke-miterlimit:4;stroke-dasharray:none;stroke:#000000;stroke-opacity:1;paint-order:markers stroke fill;fill:#ffffff;fill-opacity:1"
         d="m 37.953211,21.831728 v -8.1806 h 2.012428 l 0.08181,1.472508 q 0.40903,-0.81806 1.112561,-1.22709 0.719893,-0.40903 1.587037,-0.40903 0.883505,0 1.587036,0.40903 0.719893,0.392669 1.079839,1.210729 0.376308,-0.81806 1.161646,-1.210729 0.785337,-0.40903 1.619758,-0.40903 0.801699,0 1.456147,0.327224 0.67081,0.327224 1.063478,0.981672 0.392669,0.654448 0.392669,1.668842 v 5.366474 h -2.241484 v -4.924721 q 0,-0.899866 -0.40903,-1.276174 -0.392669,-0.376308 -0.998034,-0.376308 -0.752615,0 -1.276173,0.556281 -0.523559,0.53992 -0.523559,1.619759 v 4.401163 h -2.241484 v -4.924721 q 0,-0.899866 -0.40903,-1.276174 -0.392669,-0.376308 -1.014394,-0.376308 -0.425392,0 -0.850783,0.229057 -0.40903,0.229057 -0.68717,0.719893 -0.261779,0.490836 -0.261779,1.292535 v 4.335718 z" />
      <path
         id="path1288"
         style="font-style:normal;font-variant:normal;font-weight:600;font-stretch:normal;font-family:'Work Sans';-inkscape-font-specification:'Work Sans Semi-Bold';stroke-width:0.68791667;stroke-miterlimit:4;stroke-dasharray:none;stroke:#000000;stroke-opacity:1;paint-order:markers stroke fill;fill:#ffffff;fill-opacity:1"
         d="m 56.261389,21.99534 q -0.81806,0 -1.472508,-0.294502 -0.654448,-0.294501 -1.047116,-0.932588 -0.376308,-0.638087 -0.376308,-1.685204 v -5.431918 h 2.241484 v 4.891999 q 0,0.948949 0.392669,1.325257 0.392669,0.359946 1.128923,0.359946 0.703532,0 1.243451,-0.507197 0.556281,-0.523558 0.556281,-1.668842 v -4.401163 h 2.241484 v 8.1806 h -1.996066 l -0.08181,-1.423424 q -0.40903,0.801698 -1.128923,1.194367 -0.719893,0.392669 -1.701565,0.392669 z" />
      <path
         id="path1290"
         style="font-style:normal;font-variant:normal;font-weight:600;font-stretch:normal;font-family:'Work Sans';-inkscape-font-specification:'Work Sans Semi-Bold';stroke-width:0.68791667;stroke-miterlimit:4;stroke-dasharray:none;stroke:#000000;stroke-opacity:1;paint-order:markers stroke fill;fill:#ffffff;fill-opacity:1"
         d="m 66.797972,21.99534 q -1.243451,0 -2.274206,-0.441752 -1.014395,-0.441753 -1.652482,-1.243452 l 1.292535,-1.308896 q 0.392669,0.589004 1.047117,0.965311 0.654448,0.376308 1.554314,0.376308 0.638087,0 1.014394,-0.179973 0.392669,-0.196335 0.392669,-0.605365 0,-0.261779 -0.179973,-0.441752 -0.179973,-0.196335 -0.719893,-0.310863 l -1.439785,-0.294502 q -1.423425,-0.294501 -2.028789,-0.883505 -0.589004,-0.605364 -0.589004,-1.554314 0,-0.670809 0.392669,-1.259812 0.40903,-0.589003 1.210729,-0.94895 0.801699,-0.376307 1.996067,-0.376307 2.486902,0 3.566741,1.521591 l -1.341618,1.308896 q -0.359947,-0.572642 -0.94895,-0.867143 -0.572642,-0.310863 -1.210729,-0.310863 -1.439785,0 -1.439785,0.801699 0,0.261779 0.229057,0.458113 0.229056,0.179974 0.834421,0.310863 l 1.668842,0.343585 q 1.210729,0.245418 1.734287,0.834422 0.523559,0.572642 0.523559,1.390702 0,1.178006 -0.94895,1.946983 -0.932588,0.768976 -2.683237,0.768976 z" />
      <path
         id="path1292"
         style="font-style:normal;font-variant:normal;font-weight:600;font-stretch:normal;font-family:'Work Sans';-inkscape-font-specification:'Work Sans Semi-Bold';stroke-width:0.68791667;stroke-miterlimit:4;stroke-dasharray:none;stroke:#000000;stroke-opacity:1;paint-order:markers stroke fill;fill:#ffffff;fill-opacity:1"
         d="m 73.342422,12.473121 q -1.390702,0 -1.390702,-1.194367 0,-1.210729 1.390702,-1.210729 1.390702,0 1.390702,1.210729 0,1.194367 -1.390702,1.194367 z m 1.112562,1.178007 v 8.1806 h -2.241485 v -8.1806 z" />
      <path
         id="path1294"
         style="font-style:normal;font-variant:normal;font-weight:600;font-stretch:normal;font-family:'Work Sans';-inkscape-font-specification:'Work Sans Semi-Bold';stroke-width:0.68791667;stroke-miterlimit:4;stroke-dasharray:none;stroke:#000000;stroke-opacity:1;paint-order:markers stroke fill;fill:#ffffff;fill-opacity:1"
         d="m 79.674198,21.99534 q -0.81806,0 -1.472508,-0.294502 -0.654448,-0.294501 -1.047117,-0.932588 -0.376308,-0.638087 -0.376308,-1.685204 v -5.431918 h 2.241485 v 4.891999 q 0,0.948949 0.392669,1.325257 0.392668,0.359946 1.128922,0.359946 0.703532,0 1.243452,-0.507197 0.55628,-0.523558 0.55628,-1.668842 v -4.401163 h 2.241485 v 8.1806 h -1.996067 l -0.08181,-1.423424 q -0.40903,0.801698 -1.128922,1.194367 -0.719893,0.392669 -1.701565,0.392669 z" />
      <path
         id="path1296"
         style="font-style:normal;font-variant:normal;font-weight:600;font-stretch:normal;font-family:'Work Sans';-inkscape-font-specification:'Work Sans Semi-Bold';stroke-width:0.68791667;stroke-miterlimit:4;stroke-dasharray:none;stroke:#000000;stroke-opacity:1;paint-order:markers stroke fill;fill:#ffffff;fill-opacity:1"
         d="m 86.93854,21.831728 v -8.1806 h 2.012427 l 0.08181,1.472508 q 0.40903,-0.81806 1.112562,-1.22709 0.719893,-0.40903 1.587036,-0.40903 0.883505,0 1.587037,0.40903 0.719893,0.392669 1.079839,1.210729 0.376308,-0.81806 1.161645,-1.210729 0.785338,-0.40903 1.619759,-0.40903 0.801699,0 1.456147,0.327224 0.670809,0.327224 1.063478,0.981672 0.392664,0.654448 0.392664,1.668842 v 5.366474 h -2.24148 v -4.924721 q 0,-0.899866 -0.40903,-1.276174 -0.392668,-0.376308 -0.998033,-0.376308 -0.752615,0 -1.276173,0.556281 -0.523559,0.53992 -0.523559,1.619759 v 4.401163 h -2.241484 v -4.924721 q 0,-0.899866 -0.40903,-1.276174 -0.392669,-0.376308 -1.014395,-0.376308 -0.425391,0 -0.850782,0.229057 -0.40903,0.229057 -0.687171,0.719893 -0.261779,0.490836 -0.261779,1.292535 v 4.335718 z" />
    </g>
    <g
       transform="matrix(0.53724549,0,0,0.53724549,1.6804905,0.54991062)"
       id="g1172">
      <g
         id="layer1-6"
         inkscape:label="Vinyl"
         style="display:inline;opacity:1;stroke-width:0.956934;stroke-miterlimit:4;stroke-dasharray:none">
        <rect
           style="opacity:1;vector-effect:none;fill:#ffffff;fill-opacity:1;stroke:#ffffff;stroke-width:0.956934;stroke-linecap:butt;stroke-linejoin:miter;stroke-miterlimit:4;stroke-dasharray:none;stroke-dashoffset:0;stroke-opacity:1;paint-order:markers stroke fill"
           id="rect1110"
           width="28.839731"
           height="28.164259"
           x="16.934031"
           y="17.932554" />
        <path
           style="display:inline;opacity:1;fill:#000d14;fill-opacity:1;stroke:#ffffff;stroke-width:0.95689108;stroke-miterlimit:4;stroke-dasharray:none;stroke-opacity:1;paint-order:markers stroke fill"
           d="M 32,8.0354174 A 23.964583,23.964583 0 0 0 8.0354174,32 23.964583,23.964583 0 0 0 32,55.964583 23.964583,23.964583 0 0 0 55.964583,32 23.964583,23.964583 0 0 0 32,8.0354174 Z M 32,21.891778 A 10.108904,10.108904 0 0 1 42.108222,32 10.108904,10.108904 0 0 1 32,42.108222 10.108904,10.108904 0 0 1 21.891778,32 10.108904,10.108904 0 0 1 32,21.891778 Z"
           id="path822"
           inkscape:connector-curvature="0" />
        <path
           style="display:inline;opacity:1;fill:#000d14;fill-opacity:1;stroke-width:0.956934;stroke-miterlimit:4;stroke-dasharray:none"
           d="M 32,24.213714 A 7.7868657,7.7868657 0 0 0 24.213714,32 7.7868657,7.7868657 0 0 0 32,39.786286 7.7868657,7.7868657 0 0 0 39.786286,32 7.7868657,7.7868657 0 0 0 32,24.213714 Z m 0,7.066761 A 0.71868349,0.71868349 0 0 1 32.719525,32 0.71868349,0.71868349 0 0 1 32,32.719525 0.71868349,0.71868349 0 0 1 31.280475,32 0.71868349,0.71868349 0 0 1 32,31.280475 Z"
           id="path822-3-6"
           inkscape:connector-curvature="0" />
      </g>
      <g
         id="layer3"
         inkscape:label="Arm"
         style="display:inline;opacity:1;stroke-width:0.728704;stroke-miterlimit:4;stroke-dasharray:none">
        <circle
           style="fill:#000000;fill-opacity:1;stroke:#ffffff;stroke-width:0.956934;stroke-miterlimit:4;stroke-dasharray:none;stroke-opacity:1;paint-order:markers stroke fill"
           id="path829"
           cx="56.48217"
           cy="-6.2662058"
           r="5.081871"
           inkscape:transform-center-x="-25.099286"
           inkscape:transform-center-y="-17.975728"
           transform="rotate(19.209649)" />
        <path
           style="opacity:1;vector-effect:none;fill:#ffffff;fill-opacity:1;stroke:none;stroke-width:0.728704;stroke-linecap:butt;stroke-linejoin:miter;stroke-miterlimit:4;stroke-dasharray:none;stroke-dashoffset:0;stroke-opacity:0.9925"
           d="m 45.859589,38.292365 -1.376819,3.951544 -0.524616,1.505678 0.296971,0.259598 -0.919209,0.973059 1.01512,0.958921 0.91689,-0.971939 0.496726,0.471829 2.520995,-2.660463 -0.501283,-0.475346 6.13e-4,-0.0018 -0.376822,-0.356809 -2.523312,2.661583 -0.259158,-0.246422 2.520994,-2.660464 -0.610951,-0.581018 0.80549,-2.311801 -0.608459,-0.212002 z"
           id="rect1101"
           inkscape:connector-curvature="0"
           sodipodi:nodetypes="ccccccccccccccccccc"
           inkscape:transform-center-x="-15.511024"
           inkscape:transform-center-y="11.474261" />
        <path
           style="color:#000000;font-style:normal;font-variant:normal;font-weight:normal;font-stretch:normal;font-size:medium;line-height:normal;font-family:sans-serif;font-variant-ligatures:normal;font-variant-position:normal;font-variant-caps:normal;font-variant-numeric:normal;font-variant-alternates:normal;font-feature-settings:normal;text-indent:0;text-align:start;text-decoration:none;text-decoration-line:none;text-decoration-style:solid;text-decoration-color:#000000;letter-spacing:normal;word-spacing:normal;text-transform:none;writing-mode:lr-tb;direction:ltr;text-orientation:mixed;dominant-baseline:auto;baseline-shift:baseline;text-anchor:start;white-space:normal;shape-padding:0;clip-rule:nonzero;display:inline;overflow:visible;visibility:visible;opacity:1;isolation:auto;mix-blend-mode:normal;color-interpolation:sRGB;color-interpolation-filters:linearRGB;solid-color:#000000;solid-opacity:1;vector-effect:none;fill:#ffffff;fill-opacity:1;fill-rule:nonzero;stroke:none;stroke-width:0.728704;stroke-linecap:butt;stroke-linejoin:miter;stroke-miterlimit:4;stroke-dasharray:none;stroke-dashoffset:0;stroke-opacity:1;color-rendering:auto;image-rendering:auto;shape-rendering:auto;text-rendering:auto;enable-background:accumulate"
           d="m 47.699184,38.933326 -0.105712,0.303397 2.151483,0.749632 0.105711,-0.303397 z"
           id="path1204-3"
           inkscape:connector-curvature="0"
           sodipodi:nodetypes="ccccc"
           inkscape:transform-center-x="-18.422312"
           inkscape:transform-center-y="8.8173369" />
        <path
           style="display:inline;opacity:1;vector-effect:none;fill:#ffffff;fill-opacity:1;stroke-width:0.728704;stroke-linecap:butt;stroke-linejoin:miter;stroke-miterlimit:4;stroke-dasharray:none;stroke-dashoffset:0;stroke-opacity:1"
           d="m 53.964723,9.661144 a 3.3245644,3.3245644 0 0 0 -1.6851,1.89277 3.3245644,3.3245644 0 0 0 0.14406,2.530096 l 4.449584,1.550349 a 3.3245644,3.3245644 0 0 0 1.685099,-1.892769 3.3245644,3.3245644 0 0 0 -0.139948,-2.528664 z m 0.331106,1.219339 3.105461,1.082021 a 2.0970657,2.0970657 0 0 1 -0.0022,1.375207 2.0970657,2.0970657 0 0 1 -0.854283,1.075973 l -3.107516,-1.082739 a 2.0970657,2.0970657 0 0 1 0.0013,-1.373152 2.0970657,2.0970657 0 0 1 0.857053,-1.07731 z"
           id="path829-6"
           inkscape:connector-curvature="0"
           inkscape:transform-center-x="-0.12815253"
           inkscape:transform-center-y="-0.11820868" />
        <path
           style="display:inline;opacity:1;fill:#ffffff;fill-opacity:1;stroke-width:0.728704;stroke-miterlimit:4;stroke-dasharray:none"
           d="m 51.320009,10.544272 c -0.09915,0.189052 -0.185049,0.38476 -0.257084,0.585713 -0.06811,0.201554 -0.122163,0.407582 -0.161832,0.616598 l 0.990624,0.345159 c 0.03288,-0.20783 0.07784,-0.415249 0.149499,-0.620894 0.0719,-0.206344 0.165557,-0.397569 0.269419,-0.581418 z m 1.249585,0.435386 c -0.106241,0.181959 -0.199515,0.374185 -0.27147,0.580703 -0.07172,0.205819 -0.117577,0.413792 -0.147447,0.62161 l 1.516762,0.52848 c 0.09813,-0.188699 0.207783,-0.37536 0.278984,-0.57578 0.06906,-0.201936 0.09942,-0.416992 0.139933,-0.626534 z m 4.560566,1.589018 c -0.09914,0.189054 -0.168601,0.390494 -0.240648,0.591442 -0.06811,0.201554 -0.1386,0.401856 -0.178268,0.610872 l 1.559924,0.543518 c 0.105751,-0.181381 0.19904,-0.372828 0.270753,-0.578648 0.07195,-0.206518 0.118318,-0.415091 0.148163,-0.623665 z m 1.818883,0.633746 c -0.03287,0.208582 -0.07831,0.416609 -0.150214,0.622951 -0.07165,0.205646 -0.165317,0.396096 -0.268703,0.579362 l 0.990624,0.34516 c 0.09813,-0.188699 0.183117,-0.383954 0.254317,-0.584374 0.06907,-0.201937 0.124091,-0.408402 0.164601,-0.61794 z"
           id="rect861-5-5"
           inkscape:connector-curvature="0"
           sodipodi:nodetypes="ccccscccscccccccccscccsccccc"
           inkscape:transform-center-x="-0.12881819"
           inkscape:transform-center-y="-0.11887668" />
        <path
           style="color:#000000;font-style:normal;font-variant:normal;font-weight:normal;font-stretch:normal;font-size:medium;line-height:normal;font-family:sans-serif;font-variant-ligatures:normal;font-variant-position:normal;font-variant-caps:normal;font-variant-numeric:normal;font-variant-alternates:normal;font-feature-settings:normal;text-indent:0;text-align:start;text-decoration:none;text-decoration-line:none;text-decoration-style:solid;text-decoration-color:#000000;letter-spacing:normal;word-spacing:normal;text-transform:none;writing-mode:lr-tb;direction:ltr;text-orientation:mixed;dominant-baseline:auto;baseline-shift:baseline;text-anchor:start;white-space:normal;shape-padding:0;clip-rule:nonzero;display:inline;overflow:visible;visibility:visible;opacity:1;isolation:auto;mix-blend-mode:normal;color-interpolation:sRGB;color-interpolation-filters:linearRGB;solid-color:#000000;solid-opacity:1;vector-effect:none;fill:#000000;fill-opacity:1;fill-rule:nonzero;stroke:none;stroke-width:0.728704;stroke-linecap:butt;stroke-linejoin:miter;stroke-miterlimit:4;stroke-dasharray:none;stroke-dashoffset:0;stroke-opacity:1;color-rendering:auto;image-rendering:auto;shape-rendering:auto;text-rendering:auto;enable-background:accumulate"
           d="m 55.005882,10.067119 -1.548098,4.443123 2.298048,0.8007 1.548099,-4.443124 z"
           id="path1024-6"
           inkscape:connector-curvature="0"
           sodipodi:nodetypes="ccccc"
           inkscape:transform-center-x="-25.081101"
           inkscape:transform-center-y="-17.953473" />
        <path
           style="color:#000000;font-style:normal;font-variant:normal;font-weight:normal;font-stretch:normal;font-size:medium;line-height:normal;font-family:sans-serif;font-variant-ligatures:normal;font-variant-position:normal;font-variant-caps:normal;font-variant-numeric:normal;font-variant-alternates:normal;font-feature-settings:normal;text-indent:0;text-align:start;text-decoration:none;text-decoration-line:none;text-decoration-style:solid;text-decoration-color:#000000;letter-spacing:normal;word-spacing:normal;text-transform:none;writing-mode:lr-tb;direction:ltr;text-orientation:mixed;dominant-baseline:auto;baseline-shift:baseline;text-anchor:start;white-space:normal;shape-padding:0;clip-rule:nonzero;display:inline;overflow:visible;visibility:visible;opacity:1;isolation:auto;mix-blend-mode:normal;color-interpolation:sRGB;color-interpolation-filters:linearRGB;solid-color:#000000;solid-opacity:1;vector-effect:none;fill:#ffffff;fill-opacity:1;fill-rule:nonzero;stroke:#000000;stroke-width:0.956934;stroke-linecap:butt;stroke-linejoin:miter;stroke-miterlimit:4;stroke-dasharray:none;stroke-dashoffset:0;stroke-opacity:1;paint-order:markers stroke fill;color-rendering:auto;image-rendering:auto;shape-rendering:auto;text-rendering:auto;enable-background:accumulate"
           d="m 55.454181,9.2672903 -1.845142,5.2956537 -0.0048,1.50177 -2.817719,8.087001 1.072538,0.3737 2.817718,-8.087001 0.927766,-1.180173 1.845142,-5.2956537 z"
           id="path1024-62"
           inkscape:connector-curvature="0"
           sodipodi:nodetypes="ccccccccc"
           inkscape:transform-center-x="-23.818345"
           inkscape:transform-center-y="-13.746151" />
        <path
           style="display:inline;opacity:1;fill:#ffffff;fill-opacity:1;stroke:#000000;stroke-width:0.956934;stroke-linejoin:miter;stroke-miterlimit:4;stroke-dasharray:none;stroke-opacity:1;paint-order:stroke markers fill"
           d="m 58.001233,3.4452107 -0.05989,0.1718812 C 57.388125,3.4642821 56.825916,3.3447122 56.253332,3.2949359 l -0.0539,0.1546931 -1.622359,4.6562563 0.738167,1.560169 1.995538,0.6952967 1.549569,-0.7630627 1.672665,-4.8006368 0.0048,-0.01375 C 60.057841,4.467891 59.543165,4.2122854 59.014482,3.9890726 l 0.05929,-0.1701622 z"
           id="path829-3"
           inkscape:connector-curvature="0"
           sodipodi:nodetypes="ccccccccccccc"
           inkscape:transform-center-x="-27.257686"
           inkscape:transform-center-y="-23.81436" />
        <path
           style="color:#000000;font-style:normal;font-variant:normal;font-weight:normal;font-stretch:normal;font-size:medium;line-height:normal;font-family:sans-serif;font-variant-ligatures:normal;font-variant-position:normal;font-variant-caps:normal;font-variant-numeric:normal;font-variant-alternates:normal;font-feature-settings:normal;text-indent:0;text-align:start;text-decoration:none;text-decoration-line:none;text-decoration-style:solid;text-decoration-color:#000000;letter-spacing:normal;word-spacing:normal;text-transform:none;writing-mode:lr-tb;direction:ltr;text-orientation:mixed;dominant-baseline:auto;baseline-shift:baseline;text-anchor:start;white-space:normal;shape-padding:0;clip-rule:nonzero;display:inline;overflow:visible;visibility:visible;opacity:1;isolation:auto;mix-blend-mode:normal;color-interpolation:sRGB;color-interpolation-filters:linearRGB;solid-color:#000000;solid-opacity:1;vector-effect:none;fill:#ffffff;fill-opacity:1;fill-rule:nonzero;stroke:none;stroke-width:0.728704;stroke-linecap:butt;stroke-linejoin:miter;stroke-miterlimit:4;stroke-dasharray:none;stroke-dashoffset:0;stroke-opacity:1;paint-order:markers stroke fill;color-rendering:auto;image-rendering:auto;shape-rendering:auto;text-rendering:auto;enable-background:accumulate"
           d="m 55.454181,9.2672903 -1.845142,5.2956527 -0.0048,1.50177 -7.127412,20.456047 -0.24702,-0.08607 -0.208239,0.597658 0.24702,0.08607 -0.330325,0.948048 1.072538,0.3737 0.330325,-0.948049 0.247019,0.08607 0.208239,-0.597657 -0.247019,-0.08607 7.127412,-20.456047 0.927765,-1.180172 1.845142,-5.2956537 z m -9.594592,29.0250747 -1.901435,5.457222 2.35653,-3.311429 0.617443,-1.772094 z"
           id="path1024"
           inkscape:connector-curvature="0"
           sodipodi:nodetypes="cccccccccccccccccccccc"
           inkscape:transform-center-x="-20.404162"
           inkscape:transform-center-y="-4.134065" />
      </g>
    </g>
  </g>
</svg>
