<?xml version="1.0" encoding="UTF-8" standalone="no"?>
<svg
   xmlns:dc="http://purl.org/dc/elements/1.1/"
   xmlns:cc="http://creativecommons.org/ns#"
   xmlns:rdf="http://www.w3.org/1999/02/22-rdf-syntax-ns#"
   xmlns:svg="http://www.w3.org/2000/svg"
   xmlns="http://www.w3.org/2000/svg"
   xmlns:sodipodi="http://sodipodi.sourceforge.net/DTD/sodipodi-0.dtd"
   xmlns:inkscape="http://www.inkscape.org/namespaces/inkscape"
   width="32"
   height="32"
   viewBox="0 0 8.4666665 8.4666669"
   version="1.1"
   id="svg8"
   inkscape:version="1.0.1 (3bc2e813f5, 2020-09-07, custom)"
   sodipodi:docname="tab-album.svg">
  <defs
     id="defs2" />
  <sodipodi:namedview
     id="base"
     pagecolor="#ffffff"
     bordercolor="#666666"
     borderopacity="1.0"
     inkscape:pageopacity="0.0"
     inkscape:pageshadow="2"
     inkscape:zoom="20.442922"
     inkscape:cx="16.900173"
     inkscape:cy="17.907637"
     inkscape:document-units="px"
     inkscape:current-layer="layer1"
     inkscape:document-rotation="0"
     showgrid="true"
     units="px"
     inkscape:window-width="1920"
     inkscape:window-height="1046"
     inkscape:window-x="0"
     inkscape:window-y="0"
     inkscape:window-maximized="1">
    <inkscape:grid
       type="xygrid"
       id="grid1402" />
  </sodipodi:namedview>
  <metadata
     id="metadata5">
    <rdf:RDF>
      <cc:Work
         rdf:about="">
        <dc:format>image/svg+xml</dc:format>
        <dc:type
           rdf:resource="http://purl.org/dc/dcmitype/StillImage" />
        <dc:title></dc:title>
      </cc:Work>
    </rdf:RDF>
  </metadata>
  <g
     inkscape:label="Layer 1"
     inkscape:groupmode="layer"
     id="layer1">
    <path
       style="display:inline;opacity:1;fill:#000d14;fill-opacity:1;stroke:none;stroke-width:0.0688515;stroke-miterlimit:4;stroke-dasharray:none;stroke-opacity:1;paint-order:markers stroke fill"
       d="M 4.233332,0.26458333 A 3.9687493,3.9687499 0 0 0 0.26458333,4.2333332 3.9687493,3.9687499 0 0 0 4.233332,8.2020834 3.9687493,3.9687499 0 0 0 8.2020834,4.2333332 3.9687493,3.9687499 0 0 0 4.233332,0.26458333 Z m 0,2.29473777 A 1.6741248,1.6741251 0 0 1 5.9073441,4.2333332 1.6741248,1.6741251 0 0 1 4.233332,5.9073456 1.6741248,1.6741251 0 0 1 2.5593198,4.2333332 1.6741248,1.6741251 0 0 1 4.233332,2.5593211 Z"
       id="path822"
       inkscape:connector-curvature="0" />
    <path
       style="display:inline;opacity:1;fill:#000d14;fill-opacity:1;stroke:none;stroke-width:0.0537324"
       d="M 4.233332,2.9438546 A 1.2895746,1.2895748 0 0 0 2.9438539,4.2333332 1.2895746,1.2895748 0 0 0 4.233332,5.5228121 1.2895746,1.2895748 0 0 0 5.5228101,4.2333332 1.2895746,1.2895748 0 0 0 4.233332,2.9438546 Z m 0,1.1703189 a 0.11902043,0.11902044 0 0 1 0.11916,0.11916 0.11902043,0.11902044 0 0 1 -0.11916,0.11916 0.11902043,0.11902044 0 0 1 -0.11916,-0.11916 0.11902043,0.11902044 0 0 1 0.11916,-0.11916 z"
       id="path822-3-6"
       inkscape:connector-curvature="0" />
  </g>
</svg>
